<mxfile host="app.diagrams.net" modified="2022-05-17T12:50:06.577Z" agent="5.0 (Windows NT 10.0; Win64; x64) AppleWebKit/537.36 (KHTML, like Gecko) Chrome/101.0.4951.54 Safari/537.36" etag="2boA0RoVhruso1H1VxXy" version="17.4.4" type="github">
  <diagram id="V25uuwq8ojHrB8KkkA7x" name="Page-1">
    <mxGraphModel dx="666" dy="370" grid="1" gridSize="10" guides="1" tooltips="1" connect="1" arrows="1" fold="1" page="1" pageScale="1" pageWidth="850" pageHeight="1100" math="0" shadow="0">
      <root>
        <mxCell id="0" />
        <mxCell id="1" parent="0" />
        <mxCell id="GJw6mMWgU6OBsgFn_SWY-12" value="" style="edgeStyle=orthogonalEdgeStyle;rounded=0;orthogonalLoop=1;jettySize=auto;html=1;dashed=1;fontSize=12;strokeColor=default;strokeWidth=2;" parent="1" source="GJw6mMWgU6OBsgFn_SWY-1" target="GJw6mMWgU6OBsgFn_SWY-4" edge="1">
          <mxGeometry relative="1" as="geometry" />
        </mxCell>
        <mxCell id="GJw6mMWgU6OBsgFn_SWY-13" value="" style="edgeStyle=orthogonalEdgeStyle;rounded=0;orthogonalLoop=1;jettySize=auto;html=1;dashed=1;fontSize=12;strokeColor=default;strokeWidth=2;" parent="1" source="GJw6mMWgU6OBsgFn_SWY-1" target="GJw6mMWgU6OBsgFn_SWY-4" edge="1">
          <mxGeometry relative="1" as="geometry" />
        </mxCell>
        <mxCell id="GJw6mMWgU6OBsgFn_SWY-1" value="&lt;b&gt;Mapping &amp;amp; Configuration 1&lt;/b&gt;" style="rounded=0;whiteSpace=wrap;html=1;fillColor=#CCE5FF;strokeColor=#CCE5FF;" parent="1" vertex="1">
          <mxGeometry x="360" y="320" width="120" height="60" as="geometry" />
        </mxCell>
        <mxCell id="GJw6mMWgU6OBsgFn_SWY-2" value="&lt;b&gt;Mapping &amp;amp; Configuration 3&lt;/b&gt;" style="rounded=0;whiteSpace=wrap;html=1;fillColor=#CCE5FF;strokeColor=#CCE5FF;" parent="1" vertex="1">
          <mxGeometry x="360" y="460" width="120" height="60" as="geometry" />
        </mxCell>
        <mxCell id="GJw6mMWgU6OBsgFn_SWY-3" value="&lt;b&gt;Mapping &amp;amp; Configuration 2&lt;/b&gt;" style="rounded=0;whiteSpace=wrap;html=1;fillColor=#CCE5FF;strokeColor=#CCE5FF;" parent="1" vertex="1">
          <mxGeometry x="360" y="390" width="120" height="60" as="geometry" />
        </mxCell>
        <mxCell id="GJw6mMWgU6OBsgFn_SWY-4" value="&lt;b&gt;Implementation-level Policies (MYDATA) &lt;br&gt;Target Environment 1&lt;/b&gt;" style="rounded=0;whiteSpace=wrap;html=1;fillColor=#CCCCCC;strokeColor=#CCCCCC;" parent="1" vertex="1">
          <mxGeometry x="520" y="320" width="160" height="60" as="geometry" />
        </mxCell>
        <mxCell id="GJw6mMWgU6OBsgFn_SWY-5" value="&lt;b&gt;Implementation-level Policies (DÂ°)&lt;br&gt;Target Environment 3&lt;/b&gt;" style="rounded=0;whiteSpace=wrap;html=1;strokeColor=#CCCCCC;fillColor=#CCCCCC;" parent="1" vertex="1">
          <mxGeometry x="520" y="460" width="160" height="60" as="geometry" />
        </mxCell>
        <mxCell id="GJw6mMWgU6OBsgFn_SWY-6" value="&lt;b&gt;Implementation-level Policies (LUCON)&lt;br&gt;Target Environment 2&lt;/b&gt;" style="rounded=0;whiteSpace=wrap;html=1;strokeColor=#CCCCCC;fillColor=#CCCCCC;" parent="1" vertex="1">
          <mxGeometry x="520" y="390" width="160" height="60" as="geometry" />
        </mxCell>
        <mxCell id="GJw6mMWgU6OBsgFn_SWY-7" value="&lt;font style=&quot;font-size: 12px&quot;&gt;&lt;b&gt;Declarative Specification-level Policies&lt;/b&gt;&lt;/font&gt;" style="rounded=0;whiteSpace=wrap;html=1;fillColor=#66B2FF;strokeColor=#3399FF;" parent="1" vertex="1">
          <mxGeometry x="200" y="320" width="120" height="270" as="geometry" />
        </mxCell>
        <mxCell id="GJw6mMWgU6OBsgFn_SWY-9" value="" style="endArrow=classic;html=1;rounded=0;fontSize=12;entryX=0;entryY=0.5;entryDx=0;entryDy=0;strokeColor=default;dashed=1;strokeWidth=2;" parent="1" target="GJw6mMWgU6OBsgFn_SWY-4" edge="1">
          <mxGeometry width="50" height="50" relative="1" as="geometry">
            <mxPoint x="480" y="350" as="sourcePoint" />
            <mxPoint x="450" y="360" as="targetPoint" />
          </mxGeometry>
        </mxCell>
        <mxCell id="GJw6mMWgU6OBsgFn_SWY-11" value="" style="endArrow=none;dashed=1;html=1;rounded=0;fontSize=12;strokeColor=default;exitX=0;exitY=0.5;exitDx=0;exitDy=0;strokeWidth=2;" parent="1" source="GJw6mMWgU6OBsgFn_SWY-1" edge="1">
          <mxGeometry width="50" height="50" relative="1" as="geometry">
            <mxPoint x="400" y="410" as="sourcePoint" />
            <mxPoint x="320" y="350" as="targetPoint" />
          </mxGeometry>
        </mxCell>
        <mxCell id="GJw6mMWgU6OBsgFn_SWY-14" value="" style="endArrow=classic;html=1;rounded=0;fontSize=12;entryX=0;entryY=0.5;entryDx=0;entryDy=0;strokeColor=default;dashed=1;strokeWidth=2;exitX=1;exitY=0.5;exitDx=0;exitDy=0;" parent="1" source="GJw6mMWgU6OBsgFn_SWY-3" target="GJw6mMWgU6OBsgFn_SWY-6" edge="1">
          <mxGeometry width="50" height="50" relative="1" as="geometry">
            <mxPoint x="490" y="360" as="sourcePoint" />
            <mxPoint x="530" y="360" as="targetPoint" />
          </mxGeometry>
        </mxCell>
        <mxCell id="GJw6mMWgU6OBsgFn_SWY-15" value="" style="endArrow=classic;html=1;rounded=0;fontSize=12;entryX=0;entryY=0.5;entryDx=0;entryDy=0;strokeColor=default;dashed=1;strokeWidth=2;exitX=1;exitY=0.5;exitDx=0;exitDy=0;" parent="1" source="GJw6mMWgU6OBsgFn_SWY-2" target="GJw6mMWgU6OBsgFn_SWY-5" edge="1">
          <mxGeometry width="50" height="50" relative="1" as="geometry">
            <mxPoint x="500" y="370" as="sourcePoint" />
            <mxPoint x="540" y="370" as="targetPoint" />
          </mxGeometry>
        </mxCell>
        <mxCell id="GJw6mMWgU6OBsgFn_SWY-16" value="" style="endArrow=none;dashed=1;html=1;rounded=0;fontSize=12;strokeColor=default;exitX=0;exitY=0.5;exitDx=0;exitDy=0;strokeWidth=2;" parent="1" source="GJw6mMWgU6OBsgFn_SWY-3" edge="1">
          <mxGeometry width="50" height="50" relative="1" as="geometry">
            <mxPoint x="370" y="360" as="sourcePoint" />
            <mxPoint x="320" y="420" as="targetPoint" />
          </mxGeometry>
        </mxCell>
        <mxCell id="GJw6mMWgU6OBsgFn_SWY-17" value="" style="endArrow=none;dashed=1;html=1;rounded=0;fontSize=12;strokeColor=default;exitX=0;exitY=0.5;exitDx=0;exitDy=0;strokeWidth=2;" parent="1" source="GJw6mMWgU6OBsgFn_SWY-2" edge="1">
          <mxGeometry width="50" height="50" relative="1" as="geometry">
            <mxPoint x="380" y="370" as="sourcePoint" />
            <mxPoint x="320" y="490" as="targetPoint" />
          </mxGeometry>
        </mxCell>
        <mxCell id="GJw6mMWgU6OBsgFn_SWY-18" value="(a)" style="text;html=1;strokeColor=none;fillColor=none;align=center;verticalAlign=middle;whiteSpace=wrap;rounded=0;fontSize=12;" parent="1" vertex="1">
          <mxGeometry x="200" y="320" width="20" height="20" as="geometry" />
        </mxCell>
        <mxCell id="GJw6mMWgU6OBsgFn_SWY-19" value="(b)" style="text;html=1;strokeColor=none;fillColor=none;align=center;verticalAlign=middle;whiteSpace=wrap;rounded=0;fontSize=12;" parent="1" vertex="1">
          <mxGeometry x="355" y="320" width="30" height="20" as="geometry" />
        </mxCell>
        <mxCell id="GJw6mMWgU6OBsgFn_SWY-20" value="(c)" style="text;html=1;strokeColor=none;fillColor=none;align=center;verticalAlign=middle;whiteSpace=wrap;rounded=0;fontSize=12;" parent="1" vertex="1">
          <mxGeometry x="515" y="320" width="30" height="20" as="geometry" />
        </mxCell>
        <mxCell id="UzISLcllUohMJ8eXAdFi-1" value="&lt;b&gt;Mapping &amp;amp; Configuration n&lt;/b&gt;" style="rounded=0;whiteSpace=wrap;html=1;fillColor=#CCE5FF;strokeColor=#CCE5FF;" vertex="1" parent="1">
          <mxGeometry x="360" y="530" width="120" height="60" as="geometry" />
        </mxCell>
        <mxCell id="UzISLcllUohMJ8eXAdFi-2" value="&lt;b&gt;Other Implementation-level Policies and&amp;nbsp;&lt;br&gt;Target Environments&lt;/b&gt;" style="rounded=0;whiteSpace=wrap;html=1;strokeColor=#CCCCCC;fillColor=#CCCCCC;" vertex="1" parent="1">
          <mxGeometry x="520" y="530" width="160" height="60" as="geometry" />
        </mxCell>
        <mxCell id="UzISLcllUohMJ8eXAdFi-3" value="" style="endArrow=classic;html=1;rounded=0;fontSize=12;entryX=0;entryY=0.5;entryDx=0;entryDy=0;strokeColor=default;dashed=1;strokeWidth=2;exitX=1;exitY=0.5;exitDx=0;exitDy=0;" edge="1" parent="1" source="UzISLcllUohMJ8eXAdFi-1" target="UzISLcllUohMJ8eXAdFi-2">
          <mxGeometry width="50" height="50" relative="1" as="geometry">
            <mxPoint x="490" y="500" as="sourcePoint" />
            <mxPoint x="530" y="500" as="targetPoint" />
          </mxGeometry>
        </mxCell>
        <mxCell id="UzISLcllUohMJ8eXAdFi-4" value="" style="endArrow=none;dashed=1;html=1;rounded=0;fontSize=12;strokeColor=default;exitX=0;exitY=0.5;exitDx=0;exitDy=0;strokeWidth=2;" edge="1" parent="1" source="UzISLcllUohMJ8eXAdFi-1">
          <mxGeometry width="50" height="50" relative="1" as="geometry">
            <mxPoint x="370" y="500" as="sourcePoint" />
            <mxPoint x="320" y="560" as="targetPoint" />
          </mxGeometry>
        </mxCell>
      </root>
    </mxGraphModel>
  </diagram>
</mxfile>
